<?xml version="1.0" standalone="no"?>
<!DOCTYPE svg PUBLIC "-//W3C//DTD SVG 20010904//EN"
 "http://www.w3.org/TR/2001/REC-SVG-20010904/DTD/svg10.dtd">
<svg version="1.0" xmlns="http://www.w3.org/2000/svg"
 width="192.000000pt" height="192.000000pt" viewBox="0 0 192.000000 192.000000"
 preserveAspectRatio="xMidYMid meet">
<metadata>
Created by potrace 1.14, written by Peter Selinger 2001-2017
</metadata>
<g transform="translate(0.000000,192.000000) scale(0.100000,-0.100000)"
fill="#000000" stroke="none">
<path d="M751 1720 c-112 -50 -210 -95 -218 -102 -8 -6 -53 -69 -100 -140 -46
-70 -88 -130 -93 -133 -4 -3 15 -96 44 -208 l51 -203 260 -447 c143 -246 262
-447 265 -447 3 0 122 202 265 447 l260 447 51 203 c29 112 48 205 44 208 -5
3 -47 64 -95 135 -47 72 -96 137 -108 144 -19 13 -415 187 -420 185 -1 0 -94
-40 -206 -89z m334 -160 l120 -120 -245 0 -245 0 120 120 c66 66 122 120 125
120 3 0 59 -54 125 -120z m303 -183 l53 -53 -21 -100 c-25 -116 -30 -137 -36
-132 -4 4 -64 314 -64 331 0 17 19 4 68 -46z m-750 21 c-3 -7 -24 -82 -48
-165 -24 -84 -46 -153 -49 -153 -4 0 -23 50 -44 112 -28 85 -34 114 -24 120 6
4 44 27 82 52 74 47 90 54 83 34z m524 -221 c22 -76 38 -140 36 -141 -1 -1
-56 -47 -120 -100 l-118 -98 -117 98 c-65 53 -120 99 -121 100 -3 2 58 226 73
272 4 10 42 12 166 10 l162 -3 39 -138z m-308 -451 c54 -47 102 -86 106 -86 4
0 58 45 121 99 62 55 115 99 116 97 5 -4 -231 -586 -237 -586 -5 0 -191 455
-238 580 -6 17 -15 24 132 -104z"/>
<path d="M203 656 l-102 -11 221 -170 c122 -93 240 -183 262 -200 l40 -30 -66
95 c-36 52 -101 147 -145 210 -44 63 -86 116 -94 116 -8 1 -60 -4 -116 -10z"/>
<path d="M1426 346 c-69 -102 -126 -188 -126 -190 0 -3 118 70 262 162 l262
167 -105 17 c-57 9 -118 20 -135 23 -31 5 -33 3 -158 -179z"/>
</g>
</svg>
