<svg xmlns="http://www.w3.org/2000/svg" width="32" height="32" viewBox="0 0 32 32"><defs><style>.a{fill:#ffde46;}.b{fill:#4889ff;}.c{fill:#536bad;}.d{fill:#bee75e;}.e{fill:#01cb75;}.f{fill:#ef4a50;}.g{fill:#febf00;}.h{fill:#50c5ff;}</style></defs><g transform="translate(-843.745 -539)"><path class="a" d="M859.821,555l11.256-11.256a15.724,15.724,0,0,0-22.511,0Z" transform="translate(-0.076)"/><path class="b" d="M859.821,555.255l11.256,11.256a15.724,15.724,0,0,1-22.511,0Z" transform="translate(-0.076 -0.255)"/><path class="c" d="M860,555.076l11.256,11.256a15.724,15.724,0,0,0,0-22.511Z" transform="translate(-0.255 -0.076)"/><path class="d" d="M859.745,555.076l-11.256,11.256a15.724,15.724,0,0,1,0-22.511Z" transform="translate(0 -0.076)"/><path class="e" d="M871.256,543.82,860,555.076h16A15.693,15.693,0,0,0,871.256,543.82Z" transform="translate(-0.255 -0.076)"/><path class="f" d="M848.489,566.511l11.256-11.256h-16A15.693,15.693,0,0,0,848.489,566.511Z" transform="translate(0 -0.255)"/><path class="g" d="M860,539v16l11.256-11.256A15.693,15.693,0,0,0,860,539Z" transform="translate(-0.255)"/><path class="h" d="M859.821,555.255l-11.256,11.256a15.693,15.693,0,0,0,11.256,4.744Z" transform="translate(-0.076 -0.255)"/></g></svg>